<?xml version="1.0" encoding="utf-8"?>
<!-- Generated by IcoMoon.io -->
<!DOCTYPE svg PUBLIC "-//W3C//DTD SVG 1.1//EN" "http://www.w3.org/Graphics/SVG/1.1/DTD/svg11.dtd">
<svg version="1.1" xmlns="http://www.w3.org/2000/svg" xmlns:xlink="http://www.w3.org/1999/xlink" width="512" height="512" viewBox="0 0 512 512">
<g id="icomoon-ignore">
</g>
<path d="M352 64h-64v-32c0-17.6-14.4-32-32-32h-64c-17.602 0-32 14.4-32 32v32h-64v64h256v-64zM256 64h-64v-31.943c0.017-0.019 0.036-0.039 0.057-0.057h63.884c0.021 0.018 0.041 0.038 0.059 0.057v31.943zM416 160v-80c0-8.8-7.2-16-16-16h-32v32h16v64h-96l-96 96v128h-128v-288h16v-32h-32c-8.801 0-16 7.2-16 16v320c0 8.8 7.199 16 16 16h144v96h320v-352h-96zM288 205.255v50.745h-50.745l50.745-50.745zM480 480h-256v-192h96v-96h160v288z"></path>
</svg>
